<?xml version="1.0" standalone="no"?>
<!DOCTYPE svg PUBLIC "-//W3C//DTD SVG 20010904//EN"
 "http://www.w3.org/TR/2001/REC-SVG-20010904/DTD/svg10.dtd">
<svg version="1.0" xmlns="http://www.w3.org/2000/svg"
 width="312.000000pt" height="371.000000pt" viewBox="0 0 312.000000 371.000000"
 preserveAspectRatio="xMidYMid meet">
<metadata>
Created by potrace 1.16, written by Peter Selinger 2001-2019
</metadata>
<g transform="translate(0.000000,371.000000) scale(0.100000,-0.100000)"
fill="#000000" stroke="none">
<path d="M900 3396 c-622 -187 -676 -205 -682 -227 -4 -13 -21 -285 -38 -604
-17 -319 -35 -643 -40 -720 -30 -436 11 -739 136 -1014 133 -291 426 -564 754
-703 178 -76 320 -102 545 -102 191 0 298 15 460 65 360 111 679 363 847 670
72 129 136 338 162 519 28 205 27 281 -22 1114 l-47 809 -695 198 c-382 109
-697 198 -700 198 -3 0 -309 -92 -680 -203z m2037 -1098 c-4 -935 -4 -939 -57
-1143 -120 -456 -466 -782 -943 -886 -343 -75 -735 -28 -1016 122 -351 187
-562 486 -643 910 -20 110 -21 143 -25 987 -2 479 -1 872 3 872 4 0 70 -39
146 -87 l138 -87 0 -128 c0 -113 -2 -132 -20 -156 -17 -23 -19 -31 -8 -58 10
-27 8 -42 -15 -105 -15 -41 -27 -81 -27 -90 0 -39 83 -69 136 -49 53 20 56 49
18 145 -22 55 -24 69 -15 97 9 25 8 36 -4 54 -11 17 -15 53 -15 139 0 63 2
115 5 115 2 0 62 -37 132 -81 71 -45 297 -178 503 -296 278 -160 379 -213 390
-206 8 5 164 98 345 205 182 108 472 286 645 397 173 110 319 201 323 201 5 0
6 -393 4 -872z"/>
<path d="M952 2083 c2 -302 8 -556 12 -565 7 -16 29 -18 246 -18 227 0 239 1
245 19 10 33 65 79 106 89 52 13 104 0 141 -35 61 -58 74 -123 38 -192 -55
-109 -218 -112 -276 -6 l-19 35 -228 0 -229 0 7 -31 c25 -113 111 -257 202
-338 109 -97 233 -141 398 -141 190 0 316 51 434 175 146 154 211 371 211 708
l0 97 -239 0 -239 0 -20 -34 c-27 -46 -63 -68 -122 -74 -154 -15 -232 187
-108 281 76 58 185 37 231 -44 l22 -39 235 2 235 3 3 328 c1 189 -2 327 -7
327 -5 0 -109 -60 -232 -133 -420 -251 -395 -237 -415 -223 -44 30 -617 356
-626 356 -6 0 -8 -191 -6 -547z"/>
<path d="M1562 1980 c-28 -26 -29 -80 -4 -103 25 -23 78 -21 102 3 26 26 25
60 -1 94 -25 32 -66 34 -97 6z"/>
<path d="M1560 1500 c-26 -26 -26 -81 -2 -103 42 -38 122 -7 122 47 0 63 -77
99 -120 56z"/>
</g>
</svg>
